
<svg width="200" height="40" viewBox="0 0 200 40" fill="none" xmlns="http://www.w3.org/2000/svg">
  <!-- Berry icon with gradient -->
  <g>
    <path d="M22 8C14.268 8 8 14.268 8 22C8 29.732 14.268 36 22 36C29.732 36 36 29.732 36 22C36 14.268 29.732 8 22 8ZM22 32C16.477 32 12 27.523 12 22C12 16.477 16.477 12 22 12C27.523 12 32 16.477 32 22C32 27.523 27.523 32 22 32Z" fill="url(#berry-gradient)"/>
    <path d="M22 16C21.448 16 21 16.448 21 17V27C21 27.552 21.448 28 22 28C22.552 28 23 27.552 23 27V17C23 16.448 22.552 16 22 16Z" fill="url(#berry-gradient)"/>
    <path d="M27 22C27 21.448 26.552 21 26 21H16C15.448 21 15 21.448 15 22C15 22.552 15.448 23 16 23H26C26.552 23 27 22.552 27 22Z" fill="url(#berry-gradient)"/>
  </g>
  
  <!-- "Berrycast" text -->
  <path d="M48 14H54C55.326 14 56.598 14.527 57.536 15.464C58.473 16.402 59 17.674 59 19C59 20.326 58.473 21.598 57.536 22.536C56.598 23.473 55.326 24 54 24H51V30H48V14ZM54 21C54.796 21 55.559 20.684 56.121 20.121C56.684 19.559 57 18.796 57 18C57 17.204 56.684 16.441 56.121 15.879C55.559 15.316 54.796 15 54 15H51V21H54Z" fill="url(#text-gradient)"/>
  <path d="M63 21C63 19.674 63.527 18.402 64.464 17.464C65.402 16.527 66.674 16 68 16C69.326 16 70.598 16.527 71.536 17.464C72.473 18.402 73 19.674 73 21V23C73 24.326 72.473 25.598 71.536 26.536C70.598 27.473 69.326 28 68 28C66.674 28 65.402 27.473 64.464 26.536C63.527 25.598 63 24.326 63 23V21ZM66 23C66 23.796 66.316 24.559 66.879 25.121C67.441 25.684 68.204 26 69 26C69.796 26 70.559 25.684 71.121 25.121C71.684 24.559 72 23.796 72 23V21C72 20.204 71.684 19.441 71.121 18.879C70.559 18.316 69.796 18 69 18C68.204 18 67.441 18.316 66.879 18.879C66.316 19.441 66 20.204 66 21V23Z" fill="url(#text-gradient)"/>
  <path d="M76 16H79V18C79.835 16.775 81.205 16.008 82.684 16C84.048 16 85.35 16.553 86.278 17.535C87.206 18.517 87.684 19.877 87.684 21.294V28H84.684V21.294C84.684 20.502 84.371 19.742 83.814 19.17C83.257 18.599 82.516 18.276 81.744 18.276C80.973 18.276 80.231 18.599 79.674 19.17C79.117 19.742 78.804 20.502 78.804 21.294V28H75.804V16H76Z" fill="url(#text-gradient)"/>
  <path d="M90 16H93V18C93.835 16.775 95.205 16.008 96.684 16C98.048 16 99.35 16.553 100.278 17.535C101.206 18.517 101.684 19.877 101.684 21.294V28H98.684V21.294C98.684 20.502 98.371 19.742 97.814 19.17C97.257 18.599 96.516 18.276 95.744 18.276C94.973 18.276 94.231 18.599 93.674 19.17C93.117 19.742 92.804 20.502 92.804 21.294V28H89.804V16H90Z" fill="url(#text-gradient)"/>
  <path d="M105 14H108V16C109.299 14.757 111.012 14.043 112.8 14C113.833 13.998 114.854 14.235 115.787 14.694C116.721 15.153 117.544 15.823 118.196 16.652C119.505 15.436 121.204 14.756 122.974 14.756C123.765 14.756 124.549 14.904 125.287 15.194C126.026 15.483 126.705 15.908 127.291 16.444C127.877 16.98 128.36 17.617 128.715 18.327C129.07 19.037 129.29 19.806 129.364 20.596C129.437 21.385 129.362 22.181 129.143 22.94C128.923 23.699 128.565 24.408 128.087 25.028C127.608 25.648 127.02 26.166 126.352 26.553C125.685 26.94 124.953 27.188 124.198 27.283V22C124.198 21.204 123.882 20.441 123.319 19.879C122.757 19.316 121.994 19 121.198 19C120.402 19 119.639 19.316 119.077 19.879C118.514 20.441 118.198 21.204 118.198 22V28H115.198V22C115.198 21.204 114.882 20.441 114.319 19.879C113.757 19.316 112.994 19 112.198 19C111.402 19 110.639 19.316 110.077 19.879C109.514 20.441 109.198 21.204 109.198 22V28H106.198V14H105Z" fill="url(#text-gradient)"/>
  <path d="M131 21C131 19.674 131.527 18.402 132.464 17.464C133.402 16.527 134.674 16 136 16C137.326 16 138.598 16.527 139.536 17.464C140.473 18.402 141 19.674 141 21V23C141 24.326 140.473 25.598 139.536 26.536C138.598 27.473 137.326 28 136 28C134.674 28 133.402 27.473 132.464 26.536C131.527 25.598 131 24.326 131 23V21ZM134 23C134 23.796 134.316 24.559 134.879 25.121C135.441 25.684 136.204 26 137 26C137.796 26 138.559 25.684 139.121 25.121C139.684 24.559 140 23.796 140 23V21C140 20.204 139.684 19.441 139.121 18.879C138.559 18.316 137.796 18 137 18C136.204 18 135.441 18.316 134.879 18.879C134.316 19.441 134 20.204 134 21V23Z" fill="url(#text-gradient)"/>
  <path d="M143 19C143 18.2044 143.316 17.4413 143.879 16.8787C144.441 16.3161 145.204 16 146 16C146.796 16 147.559 16.3161 148.121 16.8787C148.684 17.4413 149 18.2044 149 19C149 19.7956 148.684 20.5587 148.121 21.1213C147.559 21.6839 146.796 22 146 22C145.204 22 144.441 21.6839 143.879 21.1213C143.316 20.5587 143 19.7956 143 19ZM143 28H149V25H143V28Z" fill="url(#text-gradient)"/>
  <path d="M150 16H153V17C154.289 16.3203 155.768 16.0045 157.241 16.096C158.714 16.1876 160.119 16.682 161.285 17.517C162.451 18.352 163.324 19.489 163.794 20.796C164.264 22.103 164.312 23.516 163.932 24.849C163.552 26.182 162.761 27.366 161.656 28.262C160.552 29.157 159.185 29.724 157.726 29.891C156.266 30.058 154.785 29.818 153.485 29.2V34H150.485V16H150ZM153.485 27C154.193 27.304 154.968 27.421 155.735 27.339C156.502 27.257 157.233 26.979 157.857 26.534C158.482 26.088 158.977 25.489 159.293 24.795C159.61 24.101 159.736 23.337 159.658 22.58C159.58 21.823 159.3 21.099 158.847 20.483C158.394 19.868 157.784 19.384 157.085 19.08C156.385 18.775 155.619 18.661 154.858 18.747C154.097 18.833 153.373 19.117 152.757 19.573C152.142 20.03 151.662 20.643 151.362 21.344C151.061 22.046 150.952 22.812 151.042 23.572C151.132 24.331 151.419 25.053 151.878 25.665C152.337 26.278 152.953 26.755 153.655 27.052L153.485 27Z" fill="url(#text-gradient)"/>
  <path d="M166 14H171C172.326 14 173.598 14.527 174.536 15.464C175.473 16.402 176 17.674 176 19C176 20.326 175.473 21.598 174.536 22.536C173.598 23.473 172.326 24 171 24H169V30H166V14ZM171 21C171.796 21 172.559 20.684 173.121 20.121C173.684 19.559 174 18.796 174 18C174 17.204 173.684 16.441 173.121 15.879C172.559 15.316 171.796 15 171 15H169V21H171Z" fill="url(#text-gradient)"/>
  
  <!-- Gradients -->
  <defs>
    <linearGradient id="berry-gradient" x1="8" y1="8" x2="36" y2="36" gradientUnits="userSpaceOnUse">
      <stop stop-color="#9b87f5"/>
      <stop offset="0.5" stop-color="#7E69AB"/>
      <stop offset="1" stop-color="#6E59A5"/>
    </linearGradient>
    <linearGradient id="text-gradient" x1="48" y1="14" x2="176" y2="34" gradientUnits="userSpaceOnUse">
      <stop stop-color="#1A1F2C"/>
      <stop offset="1" stop-color="#403E43"/>
    </linearGradient>
  </defs>
</svg>
