
<svg width="200" height="40" viewBox="0 0 200 40" fill="none" xmlns="http://www.w3.org/2000/svg">
  <!-- Berry icon with subtle stylized berry shape -->
  <g>
    <!-- Main berry shape - stylized, elegant circle -->
    <path d="M26 8C17.164 8 10 15.164 10 24C10 32.837 17.164 40 26 40C34.837 40 42 32.837 42 24C42 15.164 34.837 8 26 8ZM26 36C19.373 36 14 30.627 14 24C14 17.373 19.373 12 26 12C32.627 12 38 17.373 38 24C38 30.627 32.627 36 26 36Z" fill="url(#berry-gradient)"/>
    
    <!-- Subtle leaf pattern on top of berry -->
    <path d="M26 15C25.448 15 25 15.448 25 16V17.5C25 18.052 25.448 18.5 26 18.5C26.552 18.5 27 18.052 27 17.5V16C27 15.448 26.552 15 26 15Z" fill="url(#berry-gradient)"/>
    <path d="M26 29.5C25.448 29.5 25 29.948 25 30.5V32C25 32.552 25.448 33 26 33C26.552 33 27 32.552 27 32V30.5C27 29.948 26.552 29.5 26 29.5Z" fill="url(#berry-gradient)"/>
    <path d="M32.5 24C32.5 23.448 32.052 23 31.5 23H30C29.448 23 29 23.448 29 24C29 24.552 29.448 25 30 25H31.5C32.052 25 32.5 24.552 32.5 24Z" fill="url(#berry-gradient)"/>
    <path d="M22 24C22 23.448 21.552 23 21 23H19.5C18.948 23 18.5 23.448 18.5 24C18.5 24.552 18.948 25 19.5 25H21C21.552 25 22 24.552 22 24Z" fill="url(#berry-gradient)"/>
    
    <!-- Center cross/plus mark - distinctive element from original -->
    <path d="M26 21C25.448 21 25 21.448 25 22V26C25 26.552 25.448 27 26 27C26.552 27 27 26.552 27 26V22C27 21.448 26.552 21 26 21Z" fill="url(#berry-gradient)"/>
    <path d="M29 24C29 23.448 28.552 23 28 23H24C23.448 23 23 23.448 23 24C23 24.552 23.448 25 24 25H28C28.552 25 29 24.552 29 24Z" fill="url(#berry-gradient)"/>
  </g>
  
  <!-- "Berrycast" text with refined typography -->
  <path d="M54 16H60.5C61.826 16 63.098 16.527 64.036 17.464C64.973 18.402 65.5 19.674 65.5 21C65.5 22.104 65.09 23.124 64.4 23.9C65.09 24.676 65.5 25.696 65.5 26.8C65.5 28.126 64.973 29.398 64.036 30.336C63.098 31.273 61.826 31.8 60.5 31.8H54V16ZM60.5 22.5C60.9 22.5 61.3 22.342 61.6 22.05C61.9 21.758 62.063 21.367 62.063 20.975C62.063 20.583 61.9 20.192 61.6 19.9C61.3 19.608 60.9 19.45 60.5 19.45H57.5V22.5H60.5ZM60.5 28.35C60.9 28.35 61.3 28.192 61.6 27.9C61.9 27.608 62.063 27.217 62.063 26.825C62.063 26.433 61.9 26.042 61.6 25.75C61.3 25.458 60.9 25.3 60.5 25.3H57.5V28.35H60.5Z" fill="url(#text-gradient)"/>
  <path d="M70 20C70 18.674 70.527 17.402 71.464 16.464C72.402 15.527 73.674 15 75 15C76.326 15 77.598 15.527 78.536 16.464C79.473 17.402 80 18.674 80 20V28C80 29.326 79.473 30.598 78.536 31.536C77.598 32.473 76.326 33 75 33C73.674 33 72.402 32.473 71.464 31.536C70.527 30.598 70 29.326 70 28V20ZM73 28C73 28.796 73.316 29.559 73.879 30.121C74.441 30.684 75.204 31 76 31C76.796 31 77.559 30.684 78.121 30.121C78.684 29.559 79 28.796 79 28V20C79 19.204 78.684 18.441 78.121 17.879C77.559 17.316 76.796 17 76 17C75.204 17 74.441 17.316 73.879 17.879C73.316 18.441 73 19.204 73 20V28Z" fill="url(#text-gradient)"/>
  <path d="M83 16H86V17.4C86.835 16.175 88.205 15.408 89.684 15.4C91.048 15.4 92.35 15.953 93.278 16.935C94.206 17.917 94.684 19.277 94.684 20.694V28H91.684V20.694C91.684 19.902 91.371 19.142 90.814 18.57C90.257 17.999 89.516 17.676 88.744 17.676C87.973 17.676 87.231 17.999 86.674 18.57C86.117 19.142 85.804 19.902 85.804 20.694V28H82.804V16H83Z" fill="url(#text-gradient)"/>
  <path d="M98 16H101V17.4C101.835 16.175 103.205 15.408 104.684 15.4C106.048 15.4 107.35 15.953 108.278 16.935C109.206 17.917 109.684 19.277 109.684 20.694V28H106.684V20.694C106.684 19.902 106.371 19.142 105.814 18.57C105.257 17.999 104.516 17.676 103.744 17.676C102.973 17.676 102.231 17.999 101.674 18.57C101.117 19.142 100.804 19.902 100.804 20.694V28H97.804V16H98Z" fill="url(#text-gradient)"/>
  <path d="M114 15.4C112.2 15.4 110.5 16.3 109.5 17.7V16H106.5V33H109.5V26.3C110.5 27.7 112.2 28.6 114 28.6C117.3 28.6 120 25.9 120 22C120 18.1 117.3 15.4 114 15.4ZM113.5 25.6C111.6 25.6 110 24 110 22C110 20 111.6 18.4 113.5 18.4C115.4 18.4 117 20 117 22C117 24 115.4 25.6 113.5 25.6Z" fill="url(#text-gradient)"/>
  <path d="M127 15.4C123.7 15.4 121 18.1 121 22C121 25.9 123.7 28.6 127 28.6C130.3 28.6 133 25.9 133 22C133 18.1 130.3 15.4 127 15.4ZM127 25.6C125.1 25.6 123.5 24 123.5 22C123.5 20 125.1 18.4 127 18.4C128.9 18.4 130.5 20 130.5 22C130.5 24 128.9 25.6 127 25.6Z" fill="url(#text-gradient)"/>
  <path d="M134 16H137.5L140.5 24.7L143.5 16H147L142 28H139L134 16Z" fill="url(#text-gradient)"/>
  <path d="M147 16H150V17.4C150.835 16.175 152.205 15.408 153.684 15.4C155.048 15.4 156.35 15.953 157.278 16.935C158.206 17.917 158.684 19.277 158.684 20.694V28H155.684V20.694C155.684 19.902 155.371 19.142 154.814 18.57C154.257 17.999 153.516 17.676 152.744 17.676C151.973 17.676 151.231 17.999 150.674 18.57C150.117 19.142 149.804 19.902 149.804 20.694V28H146.804V16H147Z" fill="url(#text-gradient)"/>
  <path d="M164 16C161.8 16 160 17.8 160 20C160 22.2 161.8 24 164 24H167V28H170V16H164ZM167 21H164C163.4 21 163 20.6 163 20C163 19.4 163.4 19 164 19H167V21Z" fill="url(#text-gradient)"/>
  <path d="M177 24.2C176.2 25.1 175 25.6 173.7 25.6C171.7 25.6 170 24 170 22C170 20 171.7 18.4 173.7 18.4C175 18.4 176.2 18.9 177 19.8L179 17.8C177.5 16.3 175.7 15.4 173.7 15.4C170.2 15.4 167.5 18.4 167.5 22C167.5 25.6 170.2 28.6 173.7 28.6C175.7 28.6 177.5 27.7 179 26.2L177 24.2Z" fill="url(#text-gradient)"/>
  <path d="M187 15.4C183.7 15.4 181 18.1 181 22C181 25.9 183.7 28.6 187 28.6C190.3 28.6 193 25.9 193 22C193 18.1 190.3 15.4 187 15.4ZM187 25.6C185.1 25.6 183.5 24 183.5 22C183.5 20 185.1 18.4 187 18.4C188.9 18.4 190.5 20 190.5 22C190.5 24 188.9 25.6 187 25.6Z" fill="url(#text-gradient)"/>
  <path d="M194 16H198L201 22.5L204 16H208L203 25.1V33H200V25.1L194 16Z" fill="url(#text-gradient)"/>
  
  <!-- Gradients -->
  <defs>
    <linearGradient id="berry-gradient" x1="10" y1="8" x2="42" y2="40" gradientUnits="userSpaceOnUse">
      <stop stop-color="#9b87f5"/>
      <stop offset="0.5" stop-color="#7E69AB"/>
      <stop offset="1" stop-color="#6E59A5"/>
    </linearGradient>
    <linearGradient id="text-gradient" x1="54" y1="15" x2="208" y2="33" gradientUnits="userSpaceOnUse">
      <stop stop-color="#1A1F2C"/>
      <stop offset="1" stop-color="#403E43"/>
    </linearGradient>
  </defs>
</svg>
