
<svg width="32" height="32" viewBox="0 0 32 32" fill="none" xmlns="http://www.w3.org/2000/svg">
  <!-- Stylized berry shape for favicon -->
  <circle cx="16" cy="16" r="14" fill="url(#favicon_gradient)"/>
  
  <!-- Center cross/plus mark - distinctive element -->
  <path d="M16 10C15.448 10 15 10.448 15 11V21C15 21.552 15.448 22 16 22C16.552 22 17 21.552 17 21V11C17 10.448 16.552 10 16 10Z" fill="white"/>
  <path d="M21 16C21 15.448 20.552 15 20 15H10C9.448 15 9 15.448 9 16C9 16.552 9.448 17 10 17H20C20.552 17 21 16.552 21 16Z" fill="white"/>
  
  <!-- Gradient definition -->
  <defs>
    <linearGradient id="favicon_gradient" x1="2" y1="2" x2="30" y2="30" gradientUnits="userSpaceOnUse">
      <stop stop-color="#9b87f5"/>
      <stop offset="0.5" stop-color="#7E69AB"/>
      <stop offset="1" stop-color="#6E59A5"/>
    </linearGradient>
  </defs>
</svg>
